# AST/ASF file generated using VICON BodyLanguage
# -----------------------------------------------
:version 1.10
:name VICON
:units
  mass 1.0
  length 0.45
  angle deg
:documentation
   .ast/.asf automatically generated from VICON data using
   VICON BodyBuilder and BodyLanguage model FoxedUp or BRILLIANT.MOD
:root
   order TX TY TZ RX RY RZ
   axis XYZ
   position 0 0 0  
   orientation 0 0 0 
:bonedata
  begin
     id 1 
     name lhipjoint
     direction 0.662698 -0.695252 0.27831 
     length 2.53073 
     axis 0 0 0  XYZ
  end
  begin
     id 2 
     name lfemur
     direction 0.34202 -0.939693 0  
     length 7.16147  
     axis 0 0 20  XYZ
    dof rx ry rz
    limits (-160.0 20.0)
           (-70.0 70.0)
           (-60.0 70.0)
  end
  begin
     id 3 
     name ltibia
     direction 0.34202 -0.939693 0   
     length 7.63967   
     axis 0 0 20   XYZ
    dof rx
    limits (-10.0 170.0)
  end
  begin
     id 4 
     name lfoot
     direction 0.0938457 -0.257721 0.961651   
     length 1.89793   
     axis -90 7.62852e-016 20   XYZ
    dof rx rz
    limits (-45.0 90.0)
           (-70.0 20.0)
  end
  begin
     id 5 
     name ltoes
     direction -0.00116841 -0.0030592 0.999995   
     length 0.955649   
     axis -90 7.62852e-016 20   XYZ
    dof rx
    limits (-90.0 20.0)
  end
  begin
     id 6 
     name rhipjoint
     direction -0.649445 -0.705948 0.282592   
     length 2.49238  
     axis 0 0 0  XYZ 
  end
  begin
     id 7 
     name rfemur
     direction -0.34202 -0.939693 0   
     length 6.90728   
     axis 0 0 -20   XYZ
    dof rx ry rz
    limits (-160.0 20.0)
           (-70.0 70.0)
           (-70.0 60.0)
  end
  begin
     id 8 
     name rtibia
     direction -0.34202 -0.939693 0   
     length 7.72868   
     axis 0 0 -20   XYZ
    dof rx
    limits (-10.0 170.0)
 end
 begin
     id 9 
     name rfoot
     direction -0.0920068 -0.252865 0.963117   
     length 1.97476  
     axis -90 -7.62852e-016 -20   XYZ
    dof rx rz
    limits (-45.0 90.0)
           (-20.0 70.0)
  end
  begin
     id 10 
     name rtoes
     direction 0.000391322 0.00230649 0.999997   
     length 0.992641   
     axis -90 -7.62852e-016 -20   XYZ
    dof rx
    limits (-90.0 20.0)
  end
  begin
     id 11 
     name lowerback
     direction -0.00875327 0.998321 -0.0572635   
     length 2.20024   
     axis 0 0 0   XYZ
    dof rx ry rz
    limits (-20.0 45.0)
           (-30.0 30.0)
           (-30.0 30.0)
  end
  begin
     id 12 
     name upperback
     direction 0.00753931 0.999972 -0.000360425   
     length 2.20538   
     axis 0 0 0   XYZ
    dof rx ry rz
    limits (-20.0 45.0)
           (-30.0 30.0)
           (-30.0 30.0)
  end
  begin
     id 13 
     name thorax
     direction 0.0117767 0.999601 0.0256663   
     length 2.21508   
     axis 0 0 0   XYZ
    dof rx ry rz
    limits (-20.0 45.0)
           (-30.0 30.0)
           (-30.0 30.0)
  end
  begin
     id 14 
     name lowerneck
     direction 0.060228 0.994909 0.0807986   
     length 1.7607   
     axis 0 0 0   XYZ
    dof rx ry rz
    limits (-20.0 45.0)
           (-30.0 30.0)
           (-30.0 30.0)
  end
  begin
     id 15 
     name upperneck
     direction -0.0563647 0.959594 -0.275685   
     length 1.75612   
     axis 0 0 0   XYZ
    dof rx ry rz
    limits (-20.0 45.0)
           (-30.0 30.0)
           (-30.0 30.0)
  end
  begin
     id 16
     name head
     direction -0.0161544 0.99458 -0.102714  
     length 1.79288  
     axis 0 0 0   XYZ
    dof rx ry rz
    limits (-20.0 45.0)
           (-30.0 30.0)
           (-30.0 30.0)
  end
  begin
     id 17 
     name lclavicle
     direction 0.93913 0.332189 -0.087669  
     length 3.52087  
     axis 0 0 0   XYZ
    dof ry rz
    limits (-20.0 10.0)
           (0.0 20.0)
  end
  begin
     id 18 
     name lhumerus
     direction 1 -4.48974e-011 -2.70836e-027   
     length 5.35289   
     axis -180 -30 -90   XYZ
    dof rx ry rz
    limits (-60.0 90.0)
           (-90.0 90.0)
           (-90.0 90.0)
  end
  begin
     id 19
     name lradius
     direction 1 -4.48961e-011 -9.76021e-027   
     length 3.27727   
     axis -180 -30 -90   XYZ
    dof rx
    limits (-10.0 170.0)
  end
  begin
     id 20
     name lwrist
     direction 1 -4.49103e-011 -2.23668e-026   
     length 1.63864   
     axis 1.44924e-014 90 90   XYZ
    dof ry
    limits (-180.0 0.0)
 end
  begin
     id 21 
     name lhand
     direction 1 3.0697e-005 0.000161777   
     length 0.54443   
     axis 2.85318e-014 90 90   XYZ
    dof rx rz
    limits (-90.0 90.0)
           (-45.0 45.0)
  end
  begin
     id 22 
     name lfingers
     direction 1 -4.49027e-011 -8.9447e-026   
     length 0.438912   
     axis 5.70628e-014 90 90   XYZ
    dof rx
    limits (0.0 90.0)
  end
  begin
     id 23
     name lthumb
     direction 0.707058 2.6516e-005 0.707156   
     length 0.630274   
     axis -90 45 -3.53137e-014   XYZ
    dof rx rz
    limits (-45.0 45.0)
           (-45.0 45.0)
  end
  begin
     id 24 
     name rclavicle
     direction -0.95274 0.284984 -0.105215   
     length 3.43401  
     axis 0 0 0   XYZ 
    dof ry rz
    limits (-10.0 20.0)
           (-20.0 0.0)
  end
  begin
     id 25 
     name rhumerus
     direction -0.999999 -0.000575019 -0.00106829  
     length 5.52077   
     axis -180 30 90   XYZ
    dof rx ry rz
    limits (-90.0 60.0)
           (-90.0 90.0)
           (-90.0 90.0)
  end
  begin
     id 26 
     name rradius
     direction -1 -4.4879e-011 -6.35415e-027   
     length 3.32364   
     axis -180 30 90   XYZ
    dof rx
    limits (-10.0 170.0)
  end
  begin
     id 27 
     name rwrist
     direction -1 -4.49048e-011 -9.98542e-027   
     length 1.66182   
     axis 6.32482e-015 -90 -90   XYZ
    dof ry
    limits (-180.0 0.0)
  end
  begin
     id 28
     name rhand
     direction -1 -4.48978e-011 -1.99771e-026   
     length 0.732235   
     axis 1.27479e-014 -90 -90   XYZ
    dof rx rz
    limits (-90.0 90.0)
           (-45.0 45.0)
  end
  begin
     id 29
     name rfingers
     direction -1 -4.49144e-011 -3.99245e-026   
     length 0.590347   
     axis 2.5496e-014 -90 -90   XYZ
    dof rx
    limits (0.0 90.0)
  end
  begin
     id 30
     name rthumb
     direction -0.707107 -6.35121e-011 0.707107   
     length 0.847624   
     axis -90 -45 -2.82974e-014   XYZ
    dof rx rz
    limits (-45.0 45.0)
           (-45.0 45.0)
  end
:hierarchy
  begin
    root lhipjoint rhipjoint lowerback
    lhipjoint lfemur
    lfemur ltibia
    ltibia lfoot
    lfoot ltoes
    rhipjoint rfemur
    rfemur rtibia
    rtibia rfoot
    rfoot rtoes
    lowerback upperback
    upperback thorax
    thorax lowerneck lclavicle rclavicle
    lowerneck upperneck
    upperneck head
    lclavicle lhumerus
    lhumerus lradius
    lradius lwrist
    lwrist lhand lthumb
    lhand lfingers
    rclavicle rhumerus
    rhumerus rradius
    rradius rwrist
    rwrist rhand rthumb
    rhand rfingers
  end

#!OML:ASF G:\Work\Work\Patient Classification 1\Elijah\terrain1\Elijah.ASF
:FULLY-SPECIFIED
:DEGREES
371
root 14.5363 21.8845 24.125 6.30732 -1.83869 -0.957701
lowerback 2.76927 1.08276 1.20275
upperback 0.429705 1.49948 1.72309
thorax -1.1268 0.746908 1.03596
lowerneck -8.08254 17.1272 15.7848
upperneck 34.5584 27.7416 -12.9169
head 18.8122 12.2735 -2.52678
rclavicle -1.02374e-014 -2.38542e-015
rhumerus -35.6834 -12.8362 -76.1584
rradius 27.2766
rwrist 2.63207
rhand -15.0844 19.8487
rfingers 7.12502
rthumb 11.0833 -9.83866
lclavicle -1.02374e-014 -2.38542e-015
lhumerus -37.6421 14.9722 75.817
lradius 27.9958
lwrist -3.23894
lhand -11.9755 25.8959
lfingers 7.12502
lthumb 14.0806 55.3989
rfemur -3.11356 -7.16468 19.8971
rtibia 42.4711
rfoot 8.7465 6.67727
rtoes -15.1322
lfemur -19.3044 0.686405 -23.1867
ltibia 30.4179
lfoot -13.3345 -5.28833
ltoes -1.78359
372
root 14.5474 21.8904 24.2484 6.1276 -1.94001 -0.0481987
lowerback 2.54198 0.968984 0.412701
upperback 0.507034 1.31552 1.30367
thorax -0.926373 0.657346 1.06028
lowerneck -7.29481 17.3765 16.3292
upperneck 33.8069 28.2403 -13.6023
head 18.5935 12.5462 -2.80855
rclavicle 2.33075e-014 1.74931e-014
rhumerus -35.5286 -13.1079 -76.2682
rradius 25.999
rwrist 3.15054
rhand -14.749 19.6825
rfingers 7.12502
rthumb 11.4069 -9.9872
lclavicle 2.33075e-014 1.74931e-014
lhumerus -37.3947 14.5802 75.7822
lradius 28.2343
lwrist -2.73944
lhand -11.6972 25.9527
lfingers 7.12502
lthumb 14.3488 55.4368
rfemur -4.17822 -7.39014 18.6336
rtibia 45.0087
rfoot 8.21417 6.74801
rtoes -16.9181
lfemur -18.2173 0.496935 -24.2222
ltibia 29.6608
lfoot -13.2638 -5.23119
ltoes -1.90552
373
root 14.5621 21.8938 24.3835 5.83417 -1.84509 0.47684
lowerback 2.06207 0.85968 0.165389
upperback 0.837785 1.15311 0.975706
thorax -0.314652 0.575307 0.879331
lowerneck -7.11502 17.4204 16.0644
upperneck 33.2695 28.2854 -13.7423
head 18.2267 12.5538 -2.83788
rclavicle 2.04251e-014 1.19271e-015
rhumerus -35.1747 -14.0179 -76.1682
rradius 24.8081
rwrist 4.10932
rhand -14.3677 20.1469
rfingers 7.12502
rthumb 11.7745 -9.50209
lclavicle 2.04251e-014 1.19271e-015
lhumerus -36.83 14.1594 75.8751
lradius 28.5554
lwrist -2.40551
lhand -11.7056 25.9362
lfingers 7.12502
lthumb 14.3407 55.4209
rfemur -4.86734 -7.83293 17.7331
rtibia 47.3927
rfoot 7.1936 6.69289
rtoes -18.5211
lfemur -16.9125 0.325641 -24.8728
ltibia 28.8181
lfoot -13.0915 -5.25765
ltoes -3.58655
374
root 14.5288 21.9013 24.4478 5.8744 -2.41806 0.373865
lowerback 3.06168 1.02701 -0.219715
upperback 0.19371 1.37683 0.985308
thorax -1.54651 0.692038 1.07295
lowerneck -6.35942 17.3845 16.0932
upperneck 33.2166 28.3389 -13.7954
head 18.0482 12.6368 -2.92698
rclavicle -1.21259e-014 -1.07344e-014
rhumerus -36.2403 -14.7233 -75.62
rradius 24.0451
rwrist 5.24713
rhand -13.9899 20.6018
rfingers 7.12502
rthumb 12.1388 -9.02608
lclavicle -1.21259e-014 -1.07344e-014
lhumerus -37.3279 13.3827 75.8412
lradius 28.6568
lwrist -1.90594
lhand -11.9955 25.1571
lfingers 7.12502
lthumb 14.0613 54.6615
rfemur -6.64372 -6.76987 18.2909
rtibia 49.8401
rfoot 6.20971 5.32436
rtoes -18.7835
lfemur -16.5517 0.540216 -24.5981
ltibia 28.2787
lfoot -12.8426 -4.97016
ltoes -4.15157
375
root 14.5328 21.9044 24.5769 5.6906 -2.52866 1.42507
lowerback 3.12178 1.02455 -1.17269
upperback 0.0599749 1.33335 0.57081
thorax -1.72836 0.677489 1.18142
lowerneck -6.06329 17.4178 16.0862
upperneck 33.2413 28.4801 -13.8659
head 18.0422 12.7071 -2.94755
rclavicle -3.23025e-015 -3.97569e-016
rhumerus -36.9051 -15.1138 -75.3946
rradius 23.5577
rwrist 6.08368
rhand -13.7456 20.6486
rfingers 7.12502
rthumb 12.3744 -8.9652
lclavicle -3.23025e-015 -3.97569e-016
lhumerus -37.0788 12.9213 75.8366
lradius 28.3485
lwrist -1.70785
lhand -12.2367 24.5028
lfingers 7.12502
lthumb 13.8289 54.0231
rfemur -7.61231 -7.10647 16.9392
rtibia 52.0454
rfoot 4.92401 4.84862
rtoes -17.4951
lfemur -15.5184 0.457172 -25.8091
ltibia 27.6858
lfoot -13.0615 -4.85614
ltoes -3.06756
376
root 14.5288 21.9147 24.6321 5.84429 -2.60572 1.03704
lowerback 3.42986 0.852947 -1.08531
upperback 0.27268 1.10801 0.750866
thorax -1.678 0.563327 1.32494
lowerneck -7.2456 17.9085 15.4791
upperneck 33.0207 29.1755 -13.8678
head 18.2237 12.8224 -2.55106
rclavicle 1.19271e-014 1.43125e-014
rhumerus -36.0416 -15.0115 -75.6693
rradius 22.8829
rwrist 6.77037
rhand -13.5105 20.6856
rfingers 7.12502
rthumb 12.601 -8.91435
lclavicle 1.19271e-014 1.43125e-014
lhumerus -36.0859 13.6578 75.8631
lradius 28.4997
lwrist -1.9588
lhand -12.1485 24.9459
lfingers 7.12502
lthumb 13.9139 54.4604
rfemur -9.50061 -6.8173 17.6014
rtibia 54.1747
rfoot 4.46423 3.38755
rtoes -15.2172
lfemur -15.3044 0.268134 -25.333
ltibia 27.2261
lfoot -12.7601 -4.57134
ltoes -2.3395
377
root 14.5767 21.9127 24.7378 5.67277 -1.76767 1.69486
lowerback 3.22014 0.414609 -1.09404
upperback 0.623395 0.521432 0.473814
thorax -1.17984 0.264731 1.07709
lowerneck -7.57381 18.2064 15.4364
upperneck 32.6906 29.7414 -14.3298
head 18.3629 12.976 -2.53229
rclavicle -7.70291e-015 3.97569e-016
rhumerus -35.5694 -15.3653 -75.6536
rradius 22.266
rwrist 7.71749
rhand -13.1091 20.6946
rfingers 7.12502
rthumb 12.9881 -8.88107
lclavicle -7.70291e-015 3.97569e-016
lhumerus -35.4714 14.2435 75.8453
lradius 28.8209
lwrist -2.23499
lhand -12.2156 24.7956
lfingers 7.12502
lthumb 13.8492 54.3145
rfemur -10.1244 -8.37361 16.3439
rtibia 55.846
rfoot 3.77282 3.26858
rtoes -13.6538
lfemur -14.3636 -0.536633 -26.2649
ltibia 26.7682
lfoot -12.7146 -4.61893
ltoes -1.75443
378
root 14.5205 21.9262 24.8669 5.66278 -2.50214 1.68584
lowerback 3.02104 0.6649 -1.89578
upperback 0.424575 0.831292 0.536477
thorax -1.29281 0.425219 1.57885
lowerneck -6.85775 18.1827 15.6541
upperneck 32.5113 29.8262 -14.6082
head 18.2379 13.0732 -2.72235
rclavicle -8.00108e-015 -5.1684e-015
rhumerus -36.4313 -16.3868 -74.9974
rradius 21.9166
rwrist 9.37978
rhand -12.5807 20.8148
rfingers 7.12502
rthumb 13.4974 -8.72781
lclavicle -8.00108e-015 -5.1684e-015
lhumerus -35.6374 14.1652 75.6644
lradius 28.8742
lwrist -2.22479
lhand -12.6253 24.0978
lfingers 7.12502
lthumb 13.4544 53.6433
rfemur -11.429 -7.23454 16.8582
rtibia 57.373
rfoot 3.07008 1.66392
rtoes -14.6247
lfemur -13.9677 -0.118429 -26.0516
ltibia 26.769
lfoot -12.8516 -4.41198
ltoes -1.47306
379
root 14.5266 21.9348 24.9634 5.50827 -2.179 0.893257
lowerback 4.03256 0.710747 -0.68739
upperback -0.451488 0.927349 0.508703
thorax -2.74408 0.476305 0.849359
lowerneck -5.26636 17.7959 16.1071
upperneck 32.5799 29.3359 -14.5718
head 17.8757 13.0667 -3.07556
rclavicle -2.78299e-015 1.19271e-015
rhumerus -38.5575 -17.1869 -74.1148
rradius 21.7219
rwrist 10.5253
rhand -12.3004 21.1187
rfingers 7.12502
rthumb 13.7675 -8.4058
lclavicle -2.78299e-015 1.19271e-015
lhumerus -36.698 12.9534 75.4866
lradius 29.1234
lwrist -1.84006
lhand -13.1079 24.3332
lfingers 7.12502
lthumb 12.9891 53.9089
rfemur -12.2187 -7.62103 17.7965
rtibia 58.4934
rfoot 2.7016 0.913084
rtoes -16.3324
lfemur -13.2509 -0.285079 -25.1905
ltibia 26.5054
lfoot -12.696 -4.49622
ltoes -0.826295
380
root 14.5273 21.9498 25.0303 5.59641 -2.28331 0.0793577
lowerback 3.84242 0.651726 -0.00423738
upperback -0.0572279 0.885128 0.7428
thorax -2.22429 0.445392 0.714217
lowerneck -5.94576 18.0094 15.8547
upperneck 32.2477 29.6874 -14.9141
head 17.972 13.0992 -3.00972
rclavicle -2.43511e-015 -5.76476e-015
rhumerus -37.8011 -17.5511 -74.2724
rradius 21.3833
rwrist 11.2898
rhand -12.0767 21.0451
rfingers 7.12502
rthumb 13.9831 -8.4646
lclavicle -2.43511e-015 -5.76476e-015
lhumerus -35.5885 13.5407 75.626
lradius 29.4544
lwrist -1.96765
lhand -13.5976 25.0886
lfingers 7.12502
lthumb 12.5171 54.6937
rfemur -13.7503 -7.37848 18.9336
rtibia 59.6093
rfoot 3.12162 0.047249
rtoes -15.4882
lfemur -13.0559 -0.210985 -24.2791
ltibia 26.4046
lfoot -12.5179 -4.39525
ltoes -0.54218
381
root 14.4832 21.9726 25.2231 5.33162 -2.83354 0.545928
lowerback 3.55017 0.756284 -1.34894
upperback -0.171266 0.969516 0.837518
thorax -2.20294 0.503755 1.56394
lowerneck -5.87518 18.1184 15.6587
upperneck 32.6086 29.9262 -14.6873
head 18.1091 13.1854 -2.83746
rclavicle -5.76476e-015 -1.90833e-014
rhumerus -38.8269 -18.2495 -73.3731
rradius 21.2947
rwrist 12.7534
rhand -11.7082 21.2122
rfingers 7.12502
rthumb 14.3382 -8.27269
lclavicle -5.76476e-015 -1.90833e-014
lhumerus -36.1282 13.9666 75.4697
lradius 29.9719
lwrist -2.17476
lhand -14.0069 25.5866
lfingers 7.12502
lthumb 12.1224 55.2154
rfemur -14.3119 -6.78687 18.5603
rtibia 60.5677
rfoot 2.89719 -0.630037
rtoes -12.8162
lfemur -11.9353 0.348591 -24.7142
ltibia 26.2175
lfoot -12.9839 -4.48646
ltoes -1.20716
